<mxfile host="Electron" modified="2023-08-20T18:57:16.241Z" agent="Mozilla/5.0 (Windows NT 10.0; Win64; x64) AppleWebKit/537.36 (KHTML, like Gecko) draw.io/21.6.1 Chrome/112.0.5615.204 Electron/24.6.1 Safari/537.36" etag="IKRn4XmzHKX98oaA-l2c" version="21.6.1" type="device">
  <diagram name="Page-1" id="b5b7bab2-c9e2-2cf4-8b2a-24fd1a2a6d21">
    <mxGraphModel dx="449" dy="606" grid="1" gridSize="10" guides="1" tooltips="1" connect="1" arrows="1" fold="1" page="1" pageScale="1" pageWidth="827" pageHeight="1169" background="none" math="0" shadow="0">
      <root>
        <mxCell id="0" />
        <mxCell id="1" parent="0" />
        <mxCell id="vDOLNMGm0WUvozG8FcK_-2" value="&amp;lt;&amp;lt;package&amp;gt;&amp;gt;&lt;br&gt;int_to_roman" style="shape=folder;fontStyle=1;spacingTop=10;tabWidth=40;tabHeight=14;tabPosition=left;html=1;align=center;verticalAlign=top;" parent="1" vertex="1">
          <mxGeometry x="1080" y="130" width="720" height="500" as="geometry" />
        </mxCell>
        <mxCell id="vDOLNMGm0WUvozG8FcK_-6" value="«binary crate»&lt;br&gt;int_to_roman" style="html=1;dropTarget=0;verticalAlign=top;" parent="1" vertex="1">
          <mxGeometry x="1120" y="190" width="640" height="410" as="geometry" />
        </mxCell>
        <mxCell id="vDOLNMGm0WUvozG8FcK_-7" value="" style="shape=module;jettyWidth=8;jettyHeight=4;" parent="vDOLNMGm0WUvozG8FcK_-6" vertex="1">
          <mxGeometry x="1" width="20" height="20" relative="1" as="geometry">
            <mxPoint x="-27" y="7" as="offset" />
          </mxGeometry>
        </mxCell>
        <mxCell id="vDOLNMGm0WUvozG8FcK_-5" value="&lt;&lt;module&gt;&gt;&#xa;roman_converter" style="shape=module;align=left;spacingLeft=20;align=center;verticalAlign=top;" parent="1" vertex="1">
          <mxGeometry x="1260" y="420" width="340" height="155" as="geometry" />
        </mxCell>
        <mxCell id="vDOLNMGm0WUvozG8FcK_-1" value="«trait»&lt;br&gt;&lt;b&gt;Copy&lt;/b&gt;" style="html=1;" parent="1" vertex="1">
          <mxGeometry x="1516" y="320" width="110" height="50" as="geometry" />
        </mxCell>
        <mxCell id="vDOLNMGm0WUvozG8FcK_-3" value="" style="endArrow=block;dashed=1;endFill=0;endSize=12;html=1;rounded=0;exitX=0.917;exitY=0.006;exitDx=0;exitDy=0;exitPerimeter=0;" parent="1" source="vDOLNMGm0WUvozG8FcK_-5" target="vDOLNMGm0WUvozG8FcK_-1" edge="1">
          <mxGeometry width="160" relative="1" as="geometry">
            <mxPoint x="1610" y="639.5" as="sourcePoint" />
            <mxPoint x="1720" y="699.5" as="targetPoint" />
          </mxGeometry>
        </mxCell>
        <mxCell id="vDOLNMGm0WUvozG8FcK_-4" value="&lt;p style=&quot;margin:0px;margin-top:4px;text-align:center;&quot;&gt;&lt;b&gt;&amp;lt;&amp;lt;class&amp;gt;&amp;gt;&lt;/b&gt;&lt;/p&gt;&lt;p style=&quot;margin:0px;margin-top:4px;text-align:center;&quot;&gt;&lt;b&gt;converter&lt;/b&gt;&lt;/p&gt;&lt;hr size=&quot;1&quot;&gt;&lt;p style=&quot;margin:0px;margin-left:4px;&quot;&gt;+ convert(i64 roman): Result&amp;lt;String, String&amp;gt;&lt;/p&gt;" style="verticalAlign=top;align=left;overflow=fill;fontSize=12;fontFamily=Helvetica;html=1;" parent="1" vertex="1">
          <mxGeometry x="1292.5" y="475" width="280" height="80" as="geometry" />
        </mxCell>
        <mxCell id="vDOLNMGm0WUvozG8FcK_-8" value="&lt;&lt;module&gt;&gt;&#xa;crate root" style="shape=module;align=left;spacingLeft=20;align=center;verticalAlign=top;" parent="1" vertex="1">
          <mxGeometry x="1339" y="250" width="185" height="50" as="geometry" />
        </mxCell>
        <mxCell id="vDOLNMGm0WUvozG8FcK_-9" value="Use" style="endArrow=open;endSize=12;dashed=1;html=1;rounded=0;exitX=0.5;exitY=1;exitDx=0;exitDy=0;" parent="1" source="vDOLNMGm0WUvozG8FcK_-8" target="vDOLNMGm0WUvozG8FcK_-5" edge="1">
          <mxGeometry width="160" relative="1" as="geometry">
            <mxPoint x="870" y="610" as="sourcePoint" />
            <mxPoint x="1030" y="610" as="targetPoint" />
          </mxGeometry>
        </mxCell>
      </root>
    </mxGraphModel>
  </diagram>
</mxfile>
